<mxfile host="app.diagrams.net" agent="Mozilla/5.0 (X11; Linux x86_64) AppleWebKit/537.36 (KHTML, like Gecko) Chrome/130.0.0.0 Safari/537.36" version="24.8.2">
  <diagram name="Page-1" id="iItwbeEsly5htlvZs3Hi">
    <mxGraphModel dx="1221" dy="691" grid="1" gridSize="10" guides="1" tooltips="1" connect="1" arrows="1" fold="1" page="1" pageScale="1" pageWidth="850" pageHeight="1100" math="0" shadow="0">
      <root>
        <mxCell id="0" />
        <mxCell id="1" parent="0" />
        <mxCell id="F2MsQ0Wui_J0K2cwTOOP-1" value="&lt;font style=&quot;font-size: 16px;&quot;&gt;Pet Adopter&lt;/font&gt;" style="shape=umlActor;verticalLabelPosition=bottom;verticalAlign=top;html=1;outlineConnect=0;strokeWidth=3;" parent="1" vertex="1">
          <mxGeometry x="40" y="295" width="50" height="80" as="geometry" />
        </mxCell>
        <mxCell id="F2MsQ0Wui_J0K2cwTOOP-5" value="&lt;blockquote style=&quot;margin: 0px 0px 0px 40px; border: none; padding: 0px; line-height: 40%;&quot;&gt;&lt;p style=&quot;line-height: 40%;&quot; data-pm-slice=&quot;0 0 []&quot;&gt;&lt;br&gt;&lt;/p&gt;&lt;/blockquote&gt;" style="shape=umlActor;verticalLabelPosition=bottom;verticalAlign=top;html=1;outlineConnect=0;strokeWidth=3;align=center;" parent="1" vertex="1">
          <mxGeometry x="732" y="303" width="50" height="78" as="geometry" />
        </mxCell>
        <mxCell id="F2MsQ0Wui_J0K2cwTOOP-6" value="&lt;p style=&quot;line-height: 20%; font-size: 16px;&quot; data-pm-slice=&quot;0 0 []&quot;&gt;&lt;font style=&quot;font-size: 16px;&quot;&gt;Rescuers And&amp;nbsp;&lt;/font&gt;&lt;/p&gt;&lt;p style=&quot;line-height: 20%; font-size: 16px;&quot; data-pm-slice=&quot;0 0 []&quot;&gt;&lt;font style=&quot;font-size: 16px;&quot;&gt;Shelters&lt;/font&gt;&lt;/p&gt;" style="text;html=1;align=center;verticalAlign=middle;resizable=0;points=[];autosize=1;strokeColor=none;fillColor=none;" parent="1" vertex="1">
          <mxGeometry x="700" y="367" width="130" height="70" as="geometry" />
        </mxCell>
        <mxCell id="F2MsQ0Wui_J0K2cwTOOP-14" value="" style="swimlane;startSize=0;" parent="1" vertex="1">
          <mxGeometry x="120" y="50" width="580" height="550" as="geometry" />
        </mxCell>
        <mxCell id="F2MsQ0Wui_J0K2cwTOOP-11" value="&lt;font style=&quot;font-size: 16px;&quot;&gt;Login&lt;/font&gt;" style="ellipse;whiteSpace=wrap;html=1;" parent="F2MsQ0Wui_J0K2cwTOOP-14" vertex="1">
          <mxGeometry x="230" y="186" width="120" height="70" as="geometry" />
        </mxCell>
        <mxCell id="F2MsQ0Wui_J0K2cwTOOP-10" value="&lt;font style=&quot;font-size: 16px;&quot;&gt;Registration&lt;/font&gt;" style="ellipse;whiteSpace=wrap;html=1;" parent="F2MsQ0Wui_J0K2cwTOOP-14" vertex="1">
          <mxGeometry x="230" y="96" width="120" height="70" as="geometry" />
        </mxCell>
        <mxCell id="F2MsQ0Wui_J0K2cwTOOP-25" value="&lt;font style=&quot;font-size: 16px;&quot;&gt;Profile Management&lt;/font&gt;" style="ellipse;whiteSpace=wrap;html=1;" parent="F2MsQ0Wui_J0K2cwTOOP-14" vertex="1">
          <mxGeometry x="230" y="281" width="120" height="70" as="geometry" />
        </mxCell>
        <mxCell id="F2MsQ0Wui_J0K2cwTOOP-26" value="&lt;font style=&quot;font-size: 16px;&quot;&gt;Post Adoption&lt;/font&gt;" style="ellipse;whiteSpace=wrap;html=1;" parent="F2MsQ0Wui_J0K2cwTOOP-14" vertex="1">
          <mxGeometry x="430" y="10" width="120" height="70" as="geometry" />
        </mxCell>
        <mxCell id="F2MsQ0Wui_J0K2cwTOOP-27" value="&lt;font style=&quot;font-size: 16px;&quot;&gt;Adoption Request&lt;/font&gt;" style="ellipse;whiteSpace=wrap;html=1;" parent="F2MsQ0Wui_J0K2cwTOOP-14" vertex="1">
          <mxGeometry x="20" y="458" width="120" height="70" as="geometry" />
        </mxCell>
        <mxCell id="F2MsQ0Wui_J0K2cwTOOP-34" value="&lt;font style=&quot;font-size: 16px;&quot;&gt;Alart Post&lt;/font&gt;" style="ellipse;whiteSpace=wrap;html=1;" parent="F2MsQ0Wui_J0K2cwTOOP-14" vertex="1">
          <mxGeometry x="230" y="372" width="120" height="70" as="geometry" />
        </mxCell>
        <mxCell id="F2MsQ0Wui_J0K2cwTOOP-50" value="&lt;font style=&quot;font-size: 16px;&quot;&gt;Make&lt;/font&gt;&lt;div&gt;&lt;font style=&quot;font-size: 16px;&quot;&gt;Donation&lt;/font&gt;&lt;/div&gt;" style="ellipse;whiteSpace=wrap;html=1;" parent="F2MsQ0Wui_J0K2cwTOOP-14" vertex="1">
          <mxGeometry x="233.5" y="458" width="113" height="70" as="geometry" />
        </mxCell>
        <mxCell id="F2MsQ0Wui_J0K2cwTOOP-51" value="" style="endArrow=classic;html=1;rounded=0;entryX=1;entryY=0.5;entryDx=0;entryDy=0;exitX=0;exitY=0.5;exitDx=0;exitDy=0;dashed=1;" parent="F2MsQ0Wui_J0K2cwTOOP-14" source="F2MsQ0Wui_J0K2cwTOOP-50" target="F2MsQ0Wui_J0K2cwTOOP-27" edge="1">
          <mxGeometry width="50" height="50" relative="1" as="geometry">
            <mxPoint x="310" y="330" as="sourcePoint" />
            <mxPoint x="360" y="280" as="targetPoint" />
          </mxGeometry>
        </mxCell>
        <mxCell id="F2MsQ0Wui_J0K2cwTOOP-52" value="&lt;font style=&quot;font-size: 16px;&quot;&gt;Extends&lt;/font&gt;" style="text;html=1;align=center;verticalAlign=middle;resizable=0;points=[];autosize=1;strokeColor=none;fillColor=none;" parent="F2MsQ0Wui_J0K2cwTOOP-14" vertex="1">
          <mxGeometry x="150" y="468" width="80" height="30" as="geometry" />
        </mxCell>
        <mxCell id="c9QIoxScYRWfr0GWt4-x-1" value="&lt;font style=&quot;font-size: 16px;&quot;&gt;Add&lt;/font&gt;&lt;div&gt;&lt;font style=&quot;font-size: 16px;&quot;&gt;Rate&lt;/font&gt;&lt;/div&gt;" style="ellipse;whiteSpace=wrap;html=1;" parent="F2MsQ0Wui_J0K2cwTOOP-14" vertex="1">
          <mxGeometry x="233.5" y="10" width="113" height="70" as="geometry" />
        </mxCell>
        <mxCell id="c9QIoxScYRWfr0GWt4-x-2" value="&lt;font style=&quot;font-size: 16px;&quot;&gt;Extends&lt;/font&gt;" style="text;html=1;align=center;verticalAlign=middle;resizable=0;points=[];autosize=1;strokeColor=none;fillColor=none;" parent="F2MsQ0Wui_J0K2cwTOOP-14" vertex="1">
          <mxGeometry x="347" y="20" width="80" height="30" as="geometry" />
        </mxCell>
        <mxCell id="c9QIoxScYRWfr0GWt4-x-3" value="" style="endArrow=classic;html=1;rounded=0;entryX=0;entryY=0.5;entryDx=0;entryDy=0;exitX=1;exitY=0.5;exitDx=0;exitDy=0;dashed=1;" parent="F2MsQ0Wui_J0K2cwTOOP-14" source="c9QIoxScYRWfr0GWt4-x-1" target="F2MsQ0Wui_J0K2cwTOOP-26" edge="1">
          <mxGeometry width="50" height="50" relative="1" as="geometry">
            <mxPoint x="370" y="116" as="sourcePoint" />
            <mxPoint x="420" y="66" as="targetPoint" />
          </mxGeometry>
        </mxCell>
        <mxCell id="F2MsQ0Wui_J0K2cwTOOP-22" value="" style="endArrow=classic;html=1;rounded=0;exitX=0.5;exitY=0.5;exitDx=0;exitDy=0;exitPerimeter=0;entryX=0.993;entryY=0.363;entryDx=0;entryDy=0;entryPerimeter=0;" parent="1" source="F2MsQ0Wui_J0K2cwTOOP-5" target="F2MsQ0Wui_J0K2cwTOOP-10" edge="1">
          <mxGeometry width="50" height="50" relative="1" as="geometry">
            <mxPoint x="480" y="290" as="sourcePoint" />
            <mxPoint x="530" y="240" as="targetPoint" />
          </mxGeometry>
        </mxCell>
        <mxCell id="F2MsQ0Wui_J0K2cwTOOP-20" value="" style="endArrow=classic;html=1;rounded=0;entryX=-0.005;entryY=0.371;entryDx=0;entryDy=0;entryPerimeter=0;exitX=0.5;exitY=0.5;exitDx=0;exitDy=0;exitPerimeter=0;" parent="1" source="F2MsQ0Wui_J0K2cwTOOP-1" target="F2MsQ0Wui_J0K2cwTOOP-10" edge="1">
          <mxGeometry width="50" height="50" relative="1" as="geometry">
            <mxPoint x="293" y="319" as="sourcePoint" />
            <mxPoint x="343" y="269" as="targetPoint" />
          </mxGeometry>
        </mxCell>
        <mxCell id="F2MsQ0Wui_J0K2cwTOOP-23" value="" style="endArrow=classic;html=1;rounded=0;entryX=0;entryY=0.5;entryDx=0;entryDy=0;exitX=0.5;exitY=0.5;exitDx=0;exitDy=0;exitPerimeter=0;" parent="1" source="F2MsQ0Wui_J0K2cwTOOP-1" target="F2MsQ0Wui_J0K2cwTOOP-11" edge="1">
          <mxGeometry width="50" height="50" relative="1" as="geometry">
            <mxPoint x="430" y="400" as="sourcePoint" />
            <mxPoint x="480" y="350" as="targetPoint" />
          </mxGeometry>
        </mxCell>
        <mxCell id="F2MsQ0Wui_J0K2cwTOOP-24" value="" style="endArrow=classic;html=1;rounded=0;entryX=1;entryY=0.5;entryDx=0;entryDy=0;exitX=0.5;exitY=0.5;exitDx=0;exitDy=0;exitPerimeter=0;" parent="1" source="F2MsQ0Wui_J0K2cwTOOP-5" target="F2MsQ0Wui_J0K2cwTOOP-11" edge="1">
          <mxGeometry width="50" height="50" relative="1" as="geometry">
            <mxPoint x="430" y="400" as="sourcePoint" />
            <mxPoint x="480" y="350" as="targetPoint" />
          </mxGeometry>
        </mxCell>
        <mxCell id="F2MsQ0Wui_J0K2cwTOOP-35" value="" style="endArrow=classic;html=1;rounded=0;entryX=0.002;entryY=0.371;entryDx=0;entryDy=0;entryPerimeter=0;exitX=0.5;exitY=0.5;exitDx=0;exitDy=0;exitPerimeter=0;" parent="1" source="F2MsQ0Wui_J0K2cwTOOP-1" target="F2MsQ0Wui_J0K2cwTOOP-27" edge="1">
          <mxGeometry width="50" height="50" relative="1" as="geometry">
            <mxPoint x="460" y="360" as="sourcePoint" />
            <mxPoint x="510" y="310" as="targetPoint" />
          </mxGeometry>
        </mxCell>
        <mxCell id="F2MsQ0Wui_J0K2cwTOOP-36" value="" style="endArrow=classic;html=1;rounded=0;entryX=0;entryY=0.5;entryDx=0;entryDy=0;exitX=0.5;exitY=0.5;exitDx=0;exitDy=0;exitPerimeter=0;" parent="1" source="F2MsQ0Wui_J0K2cwTOOP-1" target="F2MsQ0Wui_J0K2cwTOOP-25" edge="1">
          <mxGeometry width="50" height="50" relative="1" as="geometry">
            <mxPoint x="460" y="360" as="sourcePoint" />
            <mxPoint x="510" y="310" as="targetPoint" />
          </mxGeometry>
        </mxCell>
        <mxCell id="F2MsQ0Wui_J0K2cwTOOP-37" value="" style="endArrow=classic;html=1;rounded=0;entryX=1;entryY=0.5;entryDx=0;entryDy=0;exitX=0.5;exitY=0.5;exitDx=0;exitDy=0;exitPerimeter=0;" parent="1" source="F2MsQ0Wui_J0K2cwTOOP-5" target="F2MsQ0Wui_J0K2cwTOOP-26" edge="1">
          <mxGeometry width="50" height="50" relative="1" as="geometry">
            <mxPoint x="460" y="360" as="sourcePoint" />
            <mxPoint x="510" y="310" as="targetPoint" />
          </mxGeometry>
        </mxCell>
        <mxCell id="F2MsQ0Wui_J0K2cwTOOP-38" value="" style="endArrow=classic;html=1;rounded=0;entryX=0;entryY=0.5;entryDx=0;entryDy=0;exitX=0.5;exitY=0.5;exitDx=0;exitDy=0;exitPerimeter=0;" parent="1" source="F2MsQ0Wui_J0K2cwTOOP-1" target="F2MsQ0Wui_J0K2cwTOOP-34" edge="1">
          <mxGeometry width="50" height="50" relative="1" as="geometry">
            <mxPoint x="460" y="360" as="sourcePoint" />
            <mxPoint x="510" y="310" as="targetPoint" />
          </mxGeometry>
        </mxCell>
        <mxCell id="F2MsQ0Wui_J0K2cwTOOP-39" value="" style="endArrow=classic;html=1;rounded=0;entryX=1;entryY=0.5;entryDx=0;entryDy=0;exitX=0.5;exitY=0.5;exitDx=0;exitDy=0;exitPerimeter=0;" parent="1" source="F2MsQ0Wui_J0K2cwTOOP-5" target="F2MsQ0Wui_J0K2cwTOOP-34" edge="1">
          <mxGeometry width="50" height="50" relative="1" as="geometry">
            <mxPoint x="460" y="360" as="sourcePoint" />
            <mxPoint x="510" y="310" as="targetPoint" />
          </mxGeometry>
        </mxCell>
        <mxCell id="F2MsQ0Wui_J0K2cwTOOP-40" value="" style="endArrow=classic;html=1;rounded=0;exitX=0.5;exitY=0.5;exitDx=0;exitDy=0;exitPerimeter=0;entryX=1;entryY=0.5;entryDx=0;entryDy=0;" parent="1" source="F2MsQ0Wui_J0K2cwTOOP-5" target="F2MsQ0Wui_J0K2cwTOOP-25" edge="1">
          <mxGeometry width="50" height="50" relative="1" as="geometry">
            <mxPoint x="460" y="360" as="sourcePoint" />
            <mxPoint x="510" y="310" as="targetPoint" />
          </mxGeometry>
        </mxCell>
      </root>
    </mxGraphModel>
  </diagram>
</mxfile>
